<svg width="19" height="20" viewBox="0 0 19 20" fill="none" xmlns="http://www.w3.org/2000/svg">
<path d="M13.5714 1.69897H5.21428C2.90652 1.69897 1.03571 3.56978 1.03571 5.87755V14.2347C1.03571 16.5424 2.90652 18.4133 5.21428 18.4133H13.5714C15.8792 18.4133 17.75 16.5424 17.75 14.2347V5.87755C17.75 3.56978 15.8792 1.69897 13.5714 1.69897Z" stroke="white" stroke-width="1.5"/>
<path d="M12.7357 9.52976C12.8388 10.2253 12.72 10.9356 12.3962 11.5597C12.0723 12.1838 11.56 12.6899 10.9319 13.0061C10.3038 13.3222 9.5921 13.4322 8.8979 13.3205C8.20371 13.2088 7.56241 12.881 7.06522 12.3839C6.56804 11.8867 6.24029 11.2454 6.12858 10.5512C6.01687 9.85699 6.12691 9.14525 6.44302 8.51719C6.75914 7.88914 7.26525 7.37675 7.88936 7.05291C8.51347 6.72907 9.2238 6.61027 9.91932 6.71341C10.6288 6.81861 11.2856 7.1492 11.7927 7.65635C12.2999 8.1635 12.6305 8.82031 12.7357 9.52976Z" stroke="white" stroke-width="1.5" stroke-linecap="round" stroke-linejoin="round"/>
</svg>
